<?xml version="1.0" encoding="UTF-8" standalone="no"?>
<!DOCTYPE svg PUBLIC "-//W3C//DTD SVG 1.1//EN" "http://www.w3.org/Graphics/SVG/1.1/DTD/svg11.dtd">
<svg width="100%" height="100%" viewBox="0 0 3508 1128" version="1.1" xmlns="http://www.w3.org/2000/svg" xmlns:xlink="http://www.w3.org/1999/xlink" xml:space="preserve" xmlns:serif="http://www.serif.com/" style="fill-rule:evenodd;clip-rule:evenodd;stroke-linejoin:round;stroke-miterlimit:2;">
    <g id="logo" transform="matrix(3.68136,0,0,3.68136,-2681.54,-4750.27)">
        <g transform="matrix(1.31452,0,0,1.33649,-370.943,-517.048)">
            <path d="M1216.2,1400.72L1313.09,1400.72C1333.75,1399.16 1380.47,1425.05 1384.4,1469.77C1385.94,1483.64 1385.64,1497.1 1384.46,1510.37C1378.27,1552.86 1352.67,1574.78 1311.02,1579.68L1214.11,1579.68L1214.07,1577.4L1224.85,1577.43C1229.63,1574.96 1233.44,1571.65 1235.66,1566.94L1235.64,1417.9C1234.32,1411.96 1231,1407.5 1224.97,1405.02L1216.21,1405L1216.2,1400.72ZM1261.55,1415.86L1261.53,1562.11C1263.16,1565.96 1265.94,1567.81 1268.03,1568.81C1283.05,1571.99 1298.24,1572.09 1313.49,1568.86C1337.76,1556.38 1351.49,1539.82 1354.28,1519.01C1357.15,1501.98 1358.05,1483.86 1354.27,1463.13C1350.44,1440.73 1335.28,1423.51 1309.01,1411.37C1296.97,1409.27 1284.76,1408.57 1272.12,1411.31C1270.39,1412.43 1263.89,1413.74 1261.55,1415.86Z"/>
        </g>
        <g transform="matrix(1.31452,0,0,1.33649,-370.943,-517.048)">
            <path d="M1390.82,1400.72L1457.82,1400.72L1457.66,1404.77C1451.67,1404.78 1446.47,1405.49 1444.81,1409.31C1443.99,1413.43 1443.97,1416.95 1444.66,1419.93L1475.13,1471.65L1478.98,1471.73L1513.75,1417.87C1514.01,1416.69 1514.06,1414.88 1513.56,1411.43C1513.21,1406.36 1506.91,1405.16 1498.65,1404.88L1498.75,1400.72L1550.31,1400.72L1550.5,1404.89C1544.48,1405.02 1538.85,1405.3 1537.7,1407.19L1485.85,1478.38L1485.76,1484.54L1544.17,1570.77C1548.52,1574.42 1554.46,1575.54 1561.23,1575.31L1561.15,1581.54L1492.28,1581.62L1492.28,1575.31C1497.65,1576.1 1501.94,1574.82 1504.9,1571L1505.05,1564.68C1493.24,1544.87 1480.86,1524.5 1468.59,1504.24L1466.44,1504.16L1427.88,1562.41L1427.64,1570.46C1428.29,1573.03 1429.73,1574.59 1431.85,1575.27L1442.55,1575.51L1442.66,1579.68L1388.68,1579.68L1388.69,1575.32L1397.24,1575.36L1459.89,1493.24L1459.86,1491.2L1403.69,1407.08C1402.05,1404.84 1396.57,1404.82 1390.91,1404.9L1390.82,1400.72Z"/>
        </g>
        <g transform="matrix(1.31452,0,0,1.33649,-370.943,-517.048)">
            <path d="M1063.2,1400.72L1132.12,1400.74L1132.12,1404.95L1124.56,1404.91C1115.58,1404.21 1110.57,1412.74 1110.66,1419.44L1110.44,1559.94C1111.64,1565.73 1115.49,1568.52 1121.48,1568.88L1168.81,1569.3C1184.56,1561.26 1194.84,1549.71 1199.42,1534.49L1202.99,1534.47C1201.35,1549.68 1199.55,1564.88 1194.52,1579.6L1063.12,1579.68L1063.1,1575.3L1073.83,1575.19C1079.32,1572.91 1082.05,1568.51 1082.77,1562.57L1082.62,1419.9C1080.56,1408.13 1074.34,1404.59 1063.22,1405.02L1063.2,1400.72Z"/>
        </g>
        <g transform="matrix(1.31452,0,0,1.33649,-856.338,-425.99)">
            <path d="M1240.16,1304.13C1248.42,1323.54 1257.72,1341.41 1264.72,1357.74L1330.16,1357.62C1337.77,1340.75 1346.58,1321.9 1352.42,1302.99C1336.09,1305.92 1329.85,1312.15 1339.17,1320.73L1339.39,1324.38C1336.52,1329.8 1332.15,1334.93 1325.95,1338.04L1315.85,1338.28C1310.6,1335.64 1305.32,1330.03 1302.38,1318.92L1302.38,1307.5C1305.09,1307.31 1307.33,1305.37 1309.01,1301.34L1308.83,1297.27C1307.12,1292.25 1303.36,1287.96 1298.06,1284.22L1296.09,1284.35C1291.47,1287.02 1287.87,1291.33 1285.31,1297.34L1285.19,1301.34C1286.35,1304.78 1288.88,1306.66 1291.84,1308.05L1291.96,1318.82C1291.3,1326.66 1286.18,1333.2 1279.37,1338.21L1267.95,1338.21C1261.11,1336.19 1257.27,1330.2 1255.31,1323.56L1255.32,1320.13C1263.36,1310.51 1252.77,1304.98 1240.16,1304.13Z"/>
        </g>
        <g transform="matrix(2.51618,0,0,2.66678,-2430.13,-3193.01)">
            <path d="M1255.29,1739.43C1255.67,1738.44 1256.33,1737.64 1257.25,1737.02L1265.77,1737.02L1265.85,1732.72L1276.49,1732.73L1276.55,1736.88L1285.23,1736.99C1286.3,1733.83 1287.78,1730.94 1289.71,1728.36L1317.51,1728.59C1320.06,1731.75 1322.18,1733.32 1323.96,1737.16L1347.56,1737.05C1349.27,1737.39 1350.19,1740.41 1349.93,1741.54L1350.07,1792.88C1349.77,1793.81 1349.06,1794.57 1347.89,1795.12L1257.39,1795.12C1256.47,1794.75 1255.74,1794.02 1255.29,1792.81L1255.29,1739.43ZM1345.74,1743.11C1345.74,1742.35 1345.12,1741.74 1344.37,1741.74L1338.46,1741.74C1337.7,1741.74 1337.09,1742.35 1337.09,1743.11L1337.09,1745.84C1337.09,1746.6 1337.7,1747.21 1338.46,1747.21L1344.37,1747.21C1345.12,1747.21 1345.74,1746.6 1345.74,1745.84L1345.74,1743.11ZM1303.2,1742.01C1290.13,1742.01 1279.52,1752.62 1279.52,1765.69C1279.52,1778.76 1290.13,1789.37 1303.2,1789.37C1316.27,1789.37 1326.88,1778.76 1326.88,1765.69C1326.88,1752.62 1316.27,1742.01 1303.2,1742.01Z"/>
        </g>
        <g transform="matrix(1.85252,0,0,1.9634,-1571.3,-1970.86)">
            <circle cx="1306.65" cy="1776.69" r="22.752"/>
        </g>
    </g>
</svg>
